<mxfile host="app.diagrams.net" agent="Mozilla/5.0 (Windows NT 10.0; Win64; x64; rv:133.0) Gecko/20100101 Firefox/133.0" version="25.0.3">
  <diagram name="Page-1" id="rECG8IWRB-J2pE9Osj1c">
    <mxGraphModel dx="794" dy="475" grid="1" gridSize="10" guides="1" tooltips="1" connect="1" arrows="1" fold="1" page="1" pageScale="1" pageWidth="827" pageHeight="1169" math="0" shadow="0">
      <root>
        <mxCell id="0" />
        <mxCell id="1" parent="0" />
        <mxCell id="9TiG3ZSyg8hLX4It5T2l-1" value="" style="strokeWidth=1;shadow=0;dashed=0;align=center;html=1;shape=mxgraph.mockup.forms.rrect;rSize=0;strokeColor=#999999;fillColor=#ffffff;" parent="1" vertex="1">
          <mxGeometry x="314" y="100" width="200" height="300" as="geometry" />
        </mxCell>
        <mxCell id="9TiG3ZSyg8hLX4It5T2l-2" value="Reset Password" style="strokeWidth=1;shadow=0;dashed=0;align=center;html=1;shape=mxgraph.mockup.forms.anchor;fontSize=12;fontColor=#666666;align=left;resizeWidth=1;spacingLeft=0;" parent="9TiG3ZSyg8hLX4It5T2l-1" vertex="1">
          <mxGeometry width="100" height="20" relative="1" as="geometry">
            <mxPoint x="10" y="10" as="offset" />
          </mxGeometry>
        </mxCell>
        <mxCell id="9TiG3ZSyg8hLX4It5T2l-3" value="" style="shape=line;strokeColor=#ddeeff;strokeWidth=2;html=1;resizeWidth=1;" parent="9TiG3ZSyg8hLX4It5T2l-1" vertex="1">
          <mxGeometry width="180" height="10" relative="1" as="geometry">
            <mxPoint x="10" y="30" as="offset" />
          </mxGeometry>
        </mxCell>
        <mxCell id="9TiG3ZSyg8hLX4It5T2l-4" value="User Name:" style="strokeWidth=1;shadow=0;dashed=0;align=center;html=1;shape=mxgraph.mockup.forms.anchor;fontSize=12;fontColor=#666666;align=left;resizeWidth=1;spacingLeft=0;" parent="9TiG3ZSyg8hLX4It5T2l-1" vertex="1">
          <mxGeometry width="100" height="20" relative="1" as="geometry">
            <mxPoint x="10" y="40" as="offset" />
          </mxGeometry>
        </mxCell>
        <mxCell id="9TiG3ZSyg8hLX4It5T2l-5" value="johndoe" style="strokeWidth=1;shadow=0;dashed=0;align=center;html=1;shape=mxgraph.mockup.forms.rrect;rSize=0;strokeColor=#999999;fontColor=#666666;align=left;spacingLeft=5;resizeWidth=1;" parent="9TiG3ZSyg8hLX4It5T2l-1" vertex="1">
          <mxGeometry width="150" height="25" relative="1" as="geometry">
            <mxPoint x="10" y="60" as="offset" />
          </mxGeometry>
        </mxCell>
        <mxCell id="9TiG3ZSyg8hLX4It5T2l-6" value="&lt;div&gt;What was the name of your first&lt;/div&gt;&lt;div&gt;school?&lt;br&gt;&lt;/div&gt;" style="strokeWidth=1;shadow=0;dashed=0;align=center;html=1;shape=mxgraph.mockup.forms.anchor;fontSize=12;fontColor=#666666;align=left;resizeWidth=1;spacingLeft=0;" parent="9TiG3ZSyg8hLX4It5T2l-1" vertex="1">
          <mxGeometry width="100" height="30" relative="1" as="geometry">
            <mxPoint x="10" y="90" as="offset" />
          </mxGeometry>
        </mxCell>
        <mxCell id="9TiG3ZSyg8hLX4It5T2l-7" value="********" style="strokeWidth=1;shadow=0;dashed=0;align=center;html=1;shape=mxgraph.mockup.forms.rrect;rSize=0;strokeColor=#999999;fontColor=#666666;align=left;spacingLeft=5;resizeWidth=1;" parent="9TiG3ZSyg8hLX4It5T2l-1" vertex="1">
          <mxGeometry width="150" height="25" relative="1" as="geometry">
            <mxPoint x="10" y="123" as="offset" />
          </mxGeometry>
        </mxCell>
        <mxCell id="9TiG3ZSyg8hLX4It5T2l-8" value="CANCEL" style="strokeWidth=1;shadow=0;dashed=0;align=center;html=1;shape=mxgraph.mockup.forms.rrect;rSize=5;strokeColor=none;fontColor=#ffffff;fillColor=#66bbff;fontSize=16;fontStyle=1;" parent="9TiG3ZSyg8hLX4It5T2l-1" vertex="1">
          <mxGeometry y="1" width="80" height="30" relative="1" as="geometry">
            <mxPoint x="110" y="-50" as="offset" />
          </mxGeometry>
        </mxCell>
        <mxCell id="9TiG3ZSyg8hLX4It5T2l-10" value="" style="shape=line;strokeColor=#ddeeff;strokeWidth=2;html=1;resizeWidth=1;" parent="9TiG3ZSyg8hLX4It5T2l-1" vertex="1">
          <mxGeometry y="1" width="180" height="10" relative="1" as="geometry">
            <mxPoint x="10" y="-71" as="offset" />
          </mxGeometry>
        </mxCell>
        <mxCell id="9TiG3ZSyg8hLX4It5T2l-12" value="RESET" style="strokeWidth=1;shadow=0;dashed=0;align=center;html=1;shape=mxgraph.mockup.forms.rrect;rSize=5;strokeColor=none;fontColor=#ffffff;fillColor=#66bbff;fontSize=16;fontStyle=1;" parent="9TiG3ZSyg8hLX4It5T2l-1" vertex="1">
          <mxGeometry y="1" width="80" height="30" relative="1" as="geometry">
            <mxPoint x="10" y="-50" as="offset" />
          </mxGeometry>
        </mxCell>
        <mxCell id="9TiG3ZSyg8hLX4It5T2l-14" value="New Password:" style="strokeWidth=1;shadow=0;dashed=0;align=center;html=1;shape=mxgraph.mockup.forms.anchor;fontSize=12;fontColor=#666666;align=left;resizeWidth=1;spacingLeft=0;" parent="9TiG3ZSyg8hLX4It5T2l-1" vertex="1">
          <mxGeometry width="100" height="30" relative="1" as="geometry">
            <mxPoint x="10" y="150" as="offset" />
          </mxGeometry>
        </mxCell>
        <mxCell id="9TiG3ZSyg8hLX4It5T2l-15" value="********" style="strokeWidth=1;shadow=0;dashed=0;align=center;html=1;shape=mxgraph.mockup.forms.rrect;rSize=0;strokeColor=#999999;fontColor=#666666;align=left;spacingLeft=5;resizeWidth=1;" parent="9TiG3ZSyg8hLX4It5T2l-1" vertex="1">
          <mxGeometry width="150" height="25" relative="1" as="geometry">
            <mxPoint x="10" y="181" as="offset" />
          </mxGeometry>
        </mxCell>
      </root>
    </mxGraphModel>
  </diagram>
</mxfile>
